<svg xmlns="http://www.w3.org/2000/svg" xmlns:xlink="http://www.w3.org/1999/xlink" xml:space="preserve" width="1600px" height="1200px" style="shape-rendering:geometricPrecision; text-rendering:geometricPrecision; image-rendering:optimizeQuality; fill-rule:evenodd; clip-rule:evenodd" viewBox="0 0 1515 1136">
 <defs>
  <style type="text/css">
   <![CDATA[
    .fil0 {fill:none}
    .fil23 {fill:#000001;fill-rule:nonzero}
    .fil52 {fill:#001573;fill-rule:nonzero}
    .fil45 {fill:#00326C;fill-rule:nonzero}
    .fil46 {fill:#0045A3;fill-rule:nonzero}
    .fil39 {fill:#0074BF;fill-rule:nonzero}
    .fil40 {fill:#0082D7;fill-rule:nonzero}
    .fil16 {fill:#0083D2;fill-rule:nonzero}
    .fil4 {fill:#00A7ED;fill-rule:nonzero}
    .fil5 {fill:#00B9F1;fill-rule:nonzero}
    .fil22 {fill:#00C6D7;fill-rule:nonzero}
    .fil2 {fill:#00DBD9;fill-rule:nonzero}
    .fil25 {fill:#00DFE1;fill-rule:nonzero}
    .fil14 {fill:#03647D;fill-rule:nonzero}
    .fil44 {fill:#040301;fill-rule:nonzero}
    .fil55 {fill:#1A0386;fill-rule:nonzero}
    .fil19 {fill:#1D83CD;fill-rule:nonzero}
    .fil49 {fill:#231780;fill-rule:nonzero}
    .fil53 {fill:#233DBA;fill-rule:nonzero}
    .fil13 {fill:#27246B;fill-rule:nonzero}
    .fil50 {fill:#2D297A;fill-rule:nonzero}
    .fil51 {fill:#353091;fill-rule:nonzero}
    .fil54 {fill:#3A50F6;fill-rule:nonzero}
    .fil43 {fill:#3C77AA;fill-rule:nonzero}
    .fil12 {fill:#4681A9;fill-rule:nonzero}
    .fil17 {fill:#5182AE;fill-rule:nonzero}
    .fil31 {fill:#52B7F5;fill-rule:nonzero}
    .fil21 {fill:#61C1F2;fill-rule:nonzero}
    .fil10 {fill:#7FC7FF;fill-rule:nonzero}
    .fil32 {fill:#81C9FC;fill-rule:nonzero}
    .fil8 {fill:#8D86F3;fill-rule:nonzero}
    .fil41 {fill:#9E8CE1;fill-rule:nonzero}
    .fil6 {fill:#AFB1FA;fill-rule:nonzero}
    .fil9 {fill:#B5D1FD;fill-rule:nonzero}
    .fil33 {fill:#B81239;fill-rule:nonzero}
    .fil18 {fill:#C1D3EE;fill-rule:nonzero}
    .fil7 {fill:#C7C5FF;fill-rule:nonzero}
    .fil38 {fill:#C8CFFF;fill-rule:nonzero}
    .fil36 {fill:lightgrey;fill-rule:nonzero}
    .fil30 {fill:#D7E8F0;fill-rule:nonzero}
    .fil48 {fill:#DA91A7;fill-rule:nonzero}
    .fil20 {fill:#DCE0EE;fill-rule:nonzero}
    .fil15 {fill:#DCEEFF;fill-rule:nonzero}
    .fil56 {fill:#DFE1FF;fill-rule:nonzero}
    .fil3 {fill:#DFE6F8;fill-rule:nonzero}
    .fil1 {fill:#E6EFFD;fill-rule:nonzero}
    .fil42 {fill:#EAEFFF;fill-rule:nonzero}
    .fil26 {fill:#F5FDFD;fill-rule:nonzero}
    .fil47 {fill:#FBBCBE;fill-rule:nonzero}
    .fil34 {fill:#FF234B;fill-rule:nonzero}
    .fil35 {fill:#FF8500;fill-rule:nonzero}
    .fil24 {fill:#FF9260;fill-rule:nonzero}
    .fil29 {fill:#FFA6C4;fill-rule:nonzero}
    .fil37 {fill:#FFA800;fill-rule:nonzero}
    .fil28 {fill:#FFBDCF;fill-rule:nonzero}
    .fil11 {fill:white;fill-rule:nonzero}
    .fil27 {fill:url(#id0)}
   ]]>
  </style>
  <linearGradient id="id0" gradientUnits="userSpaceOnUse" x1="1035.68" y1="454.947" x2="1220.52" y2="478.851">
   <stop offset="0" style="stop-opacity:1; stop-color:#FFD000"></stop>
   <stop offset="0" style="stop-opacity:1; stop-color:#FFD000"></stop>
   <stop offset="1" style="stop-opacity:1; stop-color:#FF7300"></stop>
  </linearGradient>
 </defs>
 <g id="Layer_x0020_1">
  <metadata id="CorelCorpID_0Corel-Layer"></metadata>
  <rect class="fil0" width="1515" height="1136"></rect>
  <g id="_1910663981152">
   <path class="fil1" d="M843 679c2,3 4,5 5,8 7,12 10,26 9,39 0,5 -5,8 -10,6l-38 -16c-1,-1 -1,-3 -2,-4l25 -33c3,-3 8,-3 11,0zm4 77c-6,8 -13,15 -22,20 -9,5 -18,8 -28,9 -4,0 -8,-4 -7,-8l6 -41c4,-1 7,-3 9,-6l38 15c5,2 6,7 4,11zm-80 23c-13,-5 -23,-14 -31,-26 -1,-3 -3,-6 -4,-9 -2,-5 1,-9 6,-10l40 -7c1,3 2,4 4,6l-6 41c0,5 -5,7 -9,5zm-20 -106c3,-3 9,-2 11,2l21 35c0,1 -1,1 -1,2 0,0 -1,1 -1,2l-49 8c-1,-18 6,-36 19,-49zm36 49c-2,-5 2,-11 7,-12 5,-1 11,2 12,8 1,5 -2,10 -7,11 -6,2 -11,-2 -12,-7zm-9 -65c15,-4 31,-3 44,3 5,2 6,7 3,11l-26 33c-1,-1 -3,-1 -4,-1l-21 -35c-3,-4 0,-9 4,-11zm2 -7c-39,9 -62,48 -53,86 9,39 48,63 86,54 39,-9 62,-48 53,-87 -9,-39 -48,-62 -86,-53zm97 50c11,45 -17,90 -61,101 -45,10 -89,-17 -100,-62 -11,-45 16,-90 61,-100 44,-11 89,17 100,61zm25 -25l8 -8c-2,-4 -4,-7 -6,-11 -2,-3 -4,-7 -6,-10l-12 3c-12,4 -24,-8 -21,-21l3 -11c-6,-5 -13,-9 -21,-12l-8 9c-9,9 -25,5 -29,-8l-3 -11c-8,-1 -16,-1 -24,0l-2 11c-4,13 -20,18 -29,8l-8 -8c-4,1 -8,3 -11,5 -4,2 -7,4 -10,7l3 11c4,13 -8,25 -21,21l-11 -3c-5,7 -9,14 -12,21l9 8c9,10 5,26 -8,29l-11 3c-1,8 -1,16 0,25l11 2c13,4 18,20 8,29l-8 9c2,3 3,7 5,10 3,4 5,7 7,10l11 -3c13,-4 25,8 22,21l-3 12c6,4 13,8 21,12l8 -9c9,-10 25,-5 28,8l3 11c8,1 16,1 25,0l2 -11c3,-14 20,-18 29,-8l8 8c4,-2 7,-4 11,-6 3,-2 7,-4 10,-6l-3 -12c-4,-12 8,-24 21,-21l11 3c5,-6 9,-13 12,-21l-9 -8c-9,-9 -5,-26 8,-29l11 -3c1,-8 1,-16 0,-24l-12 -3c-13,-3 -17,-19 -7,-29z"></path>
   <path class="fil1" d="M1457 886c-15,13 -38,11 -51,-5 -13,-15 -11,-38 4,-51 15,-13 38,-12 51,4 13,15 12,38 -4,52zm-55 -65c-20,17 -22,48 -5,68 17,20 48,23 68,6 20,-18 22,-48 5,-69 -17,-20 -48,-23 -68,-5zm66 78c-22,19 -56,16 -75,-7 -19,-22 -17,-56 6,-75 22,-19 56,-17 75,6 19,22 17,56 -6,76zm30 -55l-5 -15 11 -12c-3,-6 -7,-11 -12,-16l-14 8 -14 -10 2 -16c-5,-3 -11,-4 -17,-6l-8 15 -16 0 -8 -14c-7,1 -13,3 -18,6l2 16 -13 10 -15 -7c-4,5 -8,10 -11,15l11 12 -4 16 -16 3c-1,3 -1,7 -1,10 0,3 0,6 1,9l16 3 5 15 -11 13c3,5 7,10 12,15l14 -7 14 9 -2 16c6,3 11,5 18,6l8 -14 16 -1 8 15c6,-2 12,-4 18,-6l-3 -17 13 -9 15 6c5,-4 8,-10 11,-15l-11 -12 5 -16 15 -3c1,-3 1,-6 1,-10 0,-3 0,-6 -1,-9l-16 -3z"></path>
   <path class="fil2" d="M869 663c-6,-4 -14,-8 -23,-12 -9,-5 -19,-8 -28,-12 -10,-4 -45,-22 -51,-27 44,43 73,118 110,88 14,-11 5,-28 -8,-37z"></path>
   <path class="fil2" d="M827 713c-10,-2 -21,-2 -31,0 -10,1 -19,3 -26,6 5,-1 12,0 19,2 19,4 33,18 47,30 8,5 15,15 27,10 12,-3 2,-26 -9,-36 -7,-7 -16,-10 -27,-12z"></path>
   <path class="fil3" d="M770 719c-1,1 -2,1 -2,1 0,0 1,0 2,-1z"></path>
   <path class="fil2" d="M946 740c-11,-5 -28,-5 -35,-3 -19,7 -27,24 -17,36 10,15 50,-18 83,15 1,-16 -6,-36 -31,-48z"></path>
   <path class="fil2" d="M819 775c-14,-4 -30,-4 -42,4 13,-7 26,2 37,14 11,13 22,44 35,27 14,-18 -12,-40 -30,-45z"></path>
   <path class="fil4" d="M913 830c-8,-1 -15,0 -21,3 -16,11 -19,30 -3,34 8,2 16,-4 25,-9 8,-5 16,-8 25,-2 -3,-15 -10,-23 -26,-26z"></path>
   <path class="fil4" d="M785 820c3,-1 8,12 15,28 7,9 7,21 15,30 7,7 19,7 19,-2 2,-26 -15,-65 -49,-56z"></path>
   <path class="fil4" d="M906 907c-9,0 -16,-1 -24,-4 -10,-4 -24,2 -19,15 6,19 29,20 45,13 16,-6 22,5 22,5 0,0 4,-26 -24,-29z"></path>
   <path class="fil5" d="M874 805c1,-7 2,-20 3,-28 3,-23 8,-57 0,-77 -5,-13 -28,-36 -41,-39 11,5 36,30 39,40 6,19 3,36 1,56 0,9 -2,19 -2,29 -1,9 -8,34 -8,34 8,-64 -23,-88 -42,-96 -6,-3 -13,-3 -20,-4 0,0 -1,1 0,1 10,0 19,4 28,9 8,6 14,13 18,20 5,7 9,15 11,24 13,33 -5,68 -14,103 2,-24 2,-47 -5,-69 -3,-9 -15,-26 -25,-30 45,31 26,97 21,143 -7,-24 -18,-70 -30,-86 12,40 39,93 17,127 9,-14 15,-4 15,-4 0,0 0,-29 4,-30 13,-6 42,-17 57,-7 -17,-14 -59,1 -59,1 0,0 30,-53 52,-69 8,-5 16,-10 24,-13 -14,3 -21,6 -28,13 -11,11 -27,30 -43,48 5,-33 23,-83 40,-110 4,-7 27,-58 54,-37 -34,-30 -62,47 -67,51z"></path>
   <path class="fil4" d="M670 677c8,2 20,10 27,25 12,23 36,43 63,44 -22,-35 -10,-52 -90,-69z"></path>
   <path class="fil2" d="M741 754c-19,-4 -41,1 -54,14 3,-3 14,-4 21,-3 25,2 36,44 58,22 14,-14 -12,-31 -25,-33z"></path>
   <path class="fil4" d="M814 739c-22,3 -23,30 -17,34 12,8 17,-11 33,-14 5,-1 18,2 23,5 -13,-7 -11,-29 -39,-25z"></path>
   <path class="fil4" d="M772 811c-8,-6 -20,-10 -29,-11 -14,0 -23,9 -30,19 7,-9 20,-6 34,0 11,5 27,17 34,11 5,-6 0,-13 -9,-19z"></path>
   <path class="fil3" d="M713 819c0,1 0,1 0,1 0,0 0,0 0,-1z"></path>
   <path class="fil4" d="M825 793c-11,5 -17,16 -17,26 0,10 6,22 18,15 8,-4 4,-11 10,-20 5,-9 13,-17 18,-10 -8,-12 -17,-15 -29,-11z"></path>
   <path class="fil4" d="M738 851c12,0 15,5 22,18 8,17 20,28 32,20 7,-4 2,-21 -5,-28 -11,-13 -33,-23 -49,-10z"></path>
   <path class="fil4" d="M827 897c9,10 22,6 29,0 8,-6 10,-32 10,-32 0,0 -20,10 -32,12 -9,3 -15,12 -7,20z"></path>
   <path class="fil5" d="M821 905c-6,12 -7,1 -7,-7 0,-22 -3,-78 22,-99 -26,14 -21,51 -25,77 -3,-35 -39,-115 13,-128 -26,1 -32,29 -30,55 -11,-28 -31,-62 -57,-80 27,23 48,67 59,98 -15,-28 -55,-62 -84,-59 0,0 0,1 0,1 51,2 94,61 95,112 -8,-12 -25,-70 -67,-68 43,2 69,72 73,111 -12,-19 -25,-35 -37,-50 -4,-6 -10,-12 -17,-15 28,28 60,80 59,104l6 -2c0,0 -18,-48 27,-74 -16,0 -25,15 -30,24z"></path>
   <path class="fil6" d="M796 932l66 0c2,0 4,2 4,4l-3 11c0,1 -2,3 -4,3l-60 0c-2,0 -4,-2 -4,-3l-2 -11c-1,-2 1,-4 3,-4z"></path>
   <path class="fil7" d="M853 986c0,3 -2,5 -5,5l-38 0c-3,0 -5,-2 -5,-5l-5 -36 59 0 -6 36z"></path>
   <path class="fil8" d="M815 986l-5 -36 -1 0c-2,0 -3,-2 -4,-3l-2 -11c-1,-2 1,-4 4,-4l-11 0c-2,0 -4,2 -3,4l2 11c0,1 2,3 4,3l1 0 5 36c0,3 2,5 5,5l10 0c-2,0 -4,-2 -5,-5z"></path>
   <path class="fil9" d="M961 289c-1,-2 -2,-4 -3,-6 -3,-8 -4,-18 -2,-26 1,-4 4,-5 7,-4l25 15c0,1 0,2 0,3l-20 19c-2,2 -6,2 -7,-1zm5 -51c4,-5 10,-9 16,-12 7,-2 13,-4 20,-3 3,0 5,3 4,6l-8 27c-3,0 -5,1 -7,3l-24 -14c-3,-1 -3,-5 -1,-7zm56 -9c7,5 13,12 17,21 1,2 2,5 2,7 1,3 -1,6 -4,6l-28 0c0,-1 -1,-3 -2,-4l8 -27c0,-3 4,-4 7,-3zm2 73c-2,2 -6,1 -7,-2l-10 -25c0,-1 0,-1 0,-1 1,-1 1,-1 1,-1l34 -1c-1,12 -7,23 -18,30zm-19 -36c1,4 -2,7 -6,8 -3,0 -7,-3 -7,-7 0,-3 2,-6 6,-7 4,0 7,3 7,6zm0 44c-10,2 -21,0 -29,-6 -3,-1 -4,-5 -1,-7l20 -20c1,1 2,1 3,1l11 26c1,3 -1,6 -4,6zm-2 5c27,-2 46,-26 44,-53 -3,-26 -26,-46 -53,-43 -26,2 -46,26 -43,52 2,27 26,47 52,44zm-60 -43c-3,-31 20,-58 50,-61 31,-3 58,20 61,51 3,31 -19,58 -50,61 -31,3 -58,-20 -61,-51zm-19 14l-6 5c1,3 1,5 2,8 1,2 3,5 4,7l8 -1c9,-1 16,8 12,16l-3 8c4,3 8,7 13,10l6 -5c7,-6 17,-1 18,8l1 7c6,2 11,3 16,3l3 -8c4,-8 15,-9 20,-2l5 6c3,0 5,-1 8,-2 2,-1 5,-3 7,-4l-1 -8c-1,-9 8,-16 16,-12l7 3c4,-4 7,-8 10,-13l-5 -6c-5,-7 -1,-18 8,-19l8 0c1,-6 2,-11 2,-17l-7 -3c-9,-3 -10,-14 -3,-20l7 -4c-1,-3 -2,-6 -3,-8 -1,-3 -2,-5 -4,-8l-8 2c-8,1 -15,-8 -12,-17l4 -7c-4,-4 -9,-7 -13,-10l-7 5c-7,6 -17,1 -18,-8l-1 -8c-5,-1 -11,-2 -16,-2l-3 7c-3,9 -15,10 -20,3l-5 -7c-2,1 -5,2 -7,3 -3,1 -5,2 -8,4l1 8c2,9 -7,15 -16,12l-7 -3c-4,3 -7,8 -10,12l5 7c6,7 1,17 -8,18l-8 1c-1,6 -2,11 -2,16l8 3c8,4 9,15 2,20z"></path>
   <path class="fil10" d="M1163 232l186 -24c19,-2 34,11 34,30l1 58c0,19 -15,35 -33,37l-140 11 -36 36 5 -33 -13 1c-16,1 -29,-11 -30,-28l-1 -53c-1,-18 11,-33 27,-35z"></path>
   <path class="fil11" d="M1193 284l-25 3c-1,0 -2,0 -2,1 0,1 1,1 2,1l26 -3c0,0 1,0 1,-1 0,-1 -1,-1 -2,-1z"></path>
   <path class="fil11" d="M1237 279l-38 4c-1,0 -2,1 -2,2 0,0 1,1 2,1l38 -4c1,0 2,-1 2,-1 0,-1 -1,-2 -2,-2z"></path>
   <path class="fil11" d="M1192 273l-26 3c-1,0 -1,1 -1,1 0,1 0,1 1,1l26 -2c0,0 1,-1 1,-2 0,-1 -1,-1 -1,-1z"></path>
   <path class="fil11" d="M1235 268l-38 4c-1,1 -2,1 -1,2 0,1 0,1 1,1l38 -4c1,0 2,-1 2,-2 0,0 -1,-1 -2,-1z"></path>
   <path class="fil11" d="M1338 246l-90 10c-1,1 -1,1 -1,2 0,1 0,1 1,1l90 -10c1,0 2,-1 2,-2 -1,0 -1,-1 -2,-1z"></path>
   <path class="fil11" d="M1294 240l-28 4c-1,0 -2,0 -2,1 0,1 1,1 2,1l28 -3c1,0 1,-1 1,-2 0,0 0,-1 -1,-1z"></path>
   <path class="fil11" d="M1342 234l-42 6c-1,0 -2,0 -2,1 0,1 1,1 2,1l42 -5c1,0 2,-1 2,-1 0,-1 -1,-2 -2,-2z"></path>
   <path class="fil11" d="M1251 289l-83 8c-1,0 -1,0 -1,1 0,1 0,1 1,1l83 -8c1,0 1,-1 1,-1 0,-1 0,-2 -1,-1z"></path>
   <path class="fil11" d="M1274 286l-16 2c0,0 -1,0 -1,1 0,1 1,1 2,1l15 -1c1,0 1,-1 1,-2 0,0 0,-1 -1,-1z"></path>
   <path class="fil11" d="M1310 283l-29 3c-1,0 -1,0 -1,1 0,1 0,1 1,1l29 -3c1,0 1,0 1,-1 0,-1 0,-1 -1,-1z"></path>
   <path class="fil11" d="M1341 269l-30 3c-1,0 -1,1 -1,1 0,1 0,2 1,1l30 -3c1,0 2,0 2,-1 0,-1 -1,-1 -2,-1z"></path>
   <path class="fil11" d="M1334 280l-16 2c-1,0 -2,1 -2,1 0,1 1,2 2,2l16 -2c1,0 1,-1 1,-1 0,-1 0,-2 -1,-2z"></path>
   <path class="fil11" d="M1283 275l-36 3c-1,0 -2,1 -2,2 0,1 1,1 2,1l36 -4c1,0 2,0 2,-1 0,-1 -1,-1 -2,-1z"></path>
   <path class="fil11" d="M1303 273l-15 1c-1,0 -1,1 -1,2 0,0 0,1 1,1l15 -2c1,0 2,0 1,-1 0,-1 0,-2 -1,-1z"></path>
   <path class="fil11" d="M1258 266l-15 2c-1,0 -2,0 -2,1 0,1 1,1 2,1l15 -1c1,-1 1,-1 1,-2 0,-1 -1,-1 -1,-1z"></path>
   <path class="fil11" d="M1347 256l-83 9c0,0 -1,1 -1,1l0 1c0,1 1,1 2,1l82 -9c0,0 1,0 1,-1l0 -1c0,-1 -1,-1 -1,-1z"></path>
   <path class="fil11" d="M1213 250l-27 3c0,0 -1,1 -1,1 0,1 1,2 1,2l27 -4c0,0 1,0 1,-1 0,-1 -1,-1 -1,-1z"></path>
   <path class="fil11" d="M1257 245l-39 4c-1,0 -1,1 -1,2 0,0 0,1 1,1l39 -5c1,0 2,-1 2,-1 0,-1 -1,-2 -2,-1z"></path>
   <path class="fil11" d="M1180 264l-14 2c-1,0 -1,0 -1,1 0,1 0,1 1,1l14 -1c1,0 2,-1 2,-2 -1,0 -1,-1 -2,-1z"></path>
   <path class="fil11" d="M1221 260l-34 3c-1,1 -2,1 -2,2 0,1 1,1 2,1l34 -4c1,0 1,-1 1,-1 0,-1 0,-2 -1,-1z"></path>
   <path class="fil11" d="M1240 257l-14 2c-1,0 -2,1 -2,1 0,1 1,2 2,2l14 -2c0,0 1,-1 1,-1 0,-1 -1,-2 -1,-2z"></path>
   <path class="fil11" d="M1250 310l-83 7c-1,0 -1,1 -1,1 0,1 1,1 1,1l83 -7c1,0 2,0 2,-1 0,-1 -1,-1 -2,-1z"></path>
   <path class="fil11" d="M1313 293l-41 4c-1,0 -1,1 -1,2 0,0 0,1 1,1l42 -4c0,0 1,-1 1,-2 0,0 -1,-1 -2,-1z"></path>
   <path class="fil11" d="M1272 307l-15 1c-1,0 -1,1 -1,2 0,1 0,1 1,1l16 -1c0,0 1,-1 1,-2 0,-1 -1,-1 -2,-1z"></path>
   <path class="fil11" d="M1317 303l-37 3c-1,0 -2,1 -2,2 0,1 1,1 2,1l37 -3c1,0 2,-1 2,-2 0,0 -1,-1 -2,-1z"></path>
   <path class="fil11" d="M1338 301l-16 2c-1,0 -1,0 -1,1 0,1 1,1 1,1l16 -1c1,0 1,-1 1,-2 0,0 0,-1 -1,-1z"></path>
   <path class="fil11" d="M1181 305l-14 2c0,0 -1,0 -1,1 0,1 1,1 2,1l14 -1c0,0 1,-1 1,-1 0,-1 -1,-2 -2,-2z"></path>
   <path class="fil11" d="M1264 298l-76 7c-1,0 -1,0 -1,1l0 1c0,0 0,0 1,0l76 -7c1,0 1,0 1,0l0 -2c0,0 0,0 -1,0z"></path>
   <path class="fil12" d="M997 979c0,7 5,12 10,12l120 0 -1 -24 -119 1c-5,0 -10,5 -10,11z"></path>
   <path class="fil12" d="M1226 967l-79 0 -2 0 -19 0 -4 0 -16 0 -17 -18 -22 -24c-5,-5 -7,-11 -7,-18l3 -35 1 -18 0 0 0 -1 116 -3 6 0 0 4 -1 61 25 31 16 21z"></path>
   <polygon class="fil13" points="1186,850 1186,854 1185,870 1179,870 1063,872 1062,872 1064,854 1064,854 1064,853 1180,850 "></polygon>
   <path class="fil14" d="M1247 972c-2,11 -10,19 -20,19l-105 0c-6,0 -11,-6 -11,-12 0,-7 5,-12 11,-12l4 0 19 0 79 0 -18 -19 -23 -24c-4,-5 -7,-12 -6,-19l2 -35 1 -16 0 0 0 -4 6 0 16 0 0 4 0 0 -3 53 21 22 20 21c6,6 9,14 7,22z"></path>
   <path class="fil14" d="M1472 419l-20 397c-1,22 -19,38 -41,38l-186 0 -23 0 -16 0 -6 0 -17 0 -99 0 0 0 -165 0 -38 0c-1,0 -1,0 -1,0l0 0c-2,0 -3,0 -5,0 -12,-3 -22,-14 -24,-27 -1,-3 -1,-7 -1,-11l14 -181 0 0 8 -112 3 -43c2,-17 15,-32 31,-34l210 -25 45 -5 32 -4 45 -6 9 -1 186 -22c0,0 0,0 0,0 0,0 0,0 0,0l0 0 0 0 16 -2c24,-3 45,15 43,38z"></path>
   <path class="fil12" d="M1455 421l0 6 -20 382 0 8c-2,21 -19,37 -41,37l-165 0 -4 0 -23 0 0 0 -16 0 -6 0 -17 0 0 0 -99 0 -4 0 -161 0 -39 0 -5 0 -7 0c-11,0 -21,-7 -26,-17 -1,-1 -1,-1 -1,-2 -1,-2 -2,-5 -3,-8 0,-3 0,-7 0,-10l1 -15 3 -42 2 -23 0 -6 6 -73 10 -134 3 -42c2,-18 14,-33 30,-34l108 -13 115 -14 45 -5 32 -4 6 -1 28 -3 11 -2 9 -1 186 -22c0,0 0,0 0,0l0 0 0 0 0 0c24,-2 44,15 42,38z"></path>
   <path class="fil15" d="M1431 421l-1 22 -20 372c-1,8 -8,15 -16,15l-546 3c-5,0 -8,-2 -9,-4 -1,-2 -4,-5 -3,-11l24 -319 1 -18c0,-5 3,-9 7,-12 2,0 3,-1 5,-1l541 -62c6,0 10,3 12,4 0,0 0,0 0,1 1,0 1,0 1,0 0,0 0,0 1,1 1,2 3,5 3,9z"></path>
   <path class="fil16" d="M1431 422l-1 21 0 0 -570 58 0 -2 1 -20c1,-4 4,-8 7,-10 2,0 3,-1 5,-1l541 -62c6,0 10,3 12,4 0,0 0,0 0,1 1,0 1,0 1,0 0,0 0,0 1,1 1,2 3,5 3,10z"></path>
   <path class="fil11" d="M1382 420l12 14c1,1 1,1 0,2 0,1 -1,1 -2,0l-12 -13c0,-1 0,-2 1,-2 0,-1 1,-1 1,-1z"></path>
   <path class="fil11" d="M1393 419c1,0 1,0 2,0 0,1 0,2 0,2l-13 16c-1,1 -2,1 -2,1 -1,-1 -1,-2 0,-3l13 -16z"></path>
   <path class="fil11" d="M1369 430c-1,5 -4,8 -7,9 -4,0 -7,-3 -7,-7 1,-5 4,-8 7,-9 4,0 7,3 7,7zm-7 -9c-4,0 -8,5 -9,11 0,6 4,10 9,9 4,0 8,-5 9,-11 0,-5 -4,-10 -9,-9z"></path>
   <path class="fil11" d="M1329 441l16 -2c0,0 1,1 1,1 0,1 -1,2 -2,2l-15 1c-1,0 -1,0 -1,-1 0,0 0,-1 1,-1z"></path>
   <path class="fil11" d="M907 488l24 -3c1,0 2,1 2,2 0,1 -1,1 -2,1l-24 3c-1,0 -2,0 -2,-1 0,-1 1,-2 2,-2z"></path>
   <path class="fil11" d="M907 479l25 -3c1,0 1,1 1,2 0,0 0,1 -1,1l-25 3c-1,0 -1,-1 -1,-1 0,-1 0,-2 1,-2z"></path>
   <path class="fil11" d="M908 470l24 -3c1,0 2,1 2,1 0,1 -1,2 -2,2l-24 3c-1,0 -2,-1 -2,-2 0,-1 1,-1 2,-1z"></path>
   <path class="fil17" d="M824 731l6 -73 10 -134 3 -42c2,-18 14,-33 30,-34l108 -13 -1 16 0 0 0 5 -107 12c-2,0 -3,1 -5,1l0 0c-3,2 -6,6 -7,10l-1 20 -18 232 -18 0z"></path>
   <polygon class="fil18" points="842,731 860,499 860,501 977,489 977,495 977,497 976,503 976,505 976,511 976,513 975,519 975,521 975,526 975,528 974,535 974,536 973,544 973,544 973,545 973,545 973,552 973,554 972,560 972,562 970,596 969,603 968,616 967,630 966,648 965,661 962,707 960,730 936,730 936,730 920,730 914,730 896,730 896,730 "></polygon>
   <path class="fil19" d="M860 501l0 -2 1 -20c1,-4 4,-8 7,-10l0 0c2,0 3,-1 5,-1l107 -12 0 0 -1 9 0 0 0 1 -1 13 0 2 -1 6 0 2 0 0 -117 12zm72 -16c0,0 0,0 -1,0l-24 3c-1,0 -2,1 -2,2 0,0 1,1 1,1 0,0 1,0 1,0l24 -3c1,0 2,0 2,-1 0,-1 -1,-2 -1,-2zm0 -9c0,0 0,0 0,0l-25 3c-1,0 -1,1 -1,2 0,0 0,1 1,1 0,0 0,0 0,0l25 -3c1,0 1,-1 1,-1 0,-1 0,-2 -1,-2zm1 -9c0,0 -1,0 -1,0l-24 3c-1,0 -2,0 -2,1 0,1 1,2 1,2 0,0 0,0 1,0l24 -3c1,0 2,-1 2,-2 0,0 -1,-1 -1,-1z"></path>
   <path class="fil20" d="M906 491c0,0 -1,-1 -1,-1 0,-1 1,-2 2,-2l24 -3c1,0 1,0 1,0 0,0 1,1 1,2 0,1 -1,1 -2,1l-24 3c0,0 -1,0 -1,0z"></path>
   <path class="fil20" d="M907 482c-1,0 -1,-1 -1,-1 0,-1 0,-2 1,-2l25 -3c0,0 0,0 0,0 1,0 1,1 1,2 0,0 0,1 -1,1l-25 3c0,0 0,0 0,0z"></path>
   <path class="fil20" d="M907 473c0,0 -1,-1 -1,-2 0,-1 1,-1 2,-1l24 -3c0,0 1,0 1,0 0,0 1,1 1,1 0,1 -1,2 -2,2l-24 3c-1,0 -1,0 -1,0z"></path>
   <path class="fil17" d="M1161 435c3,-9 8,-19 18,-24l22 -3 13 21 28 -3c0,0 0,0 0,0l-81 9z"></path>
   <path class="fil18" d="M1063 832c0,-1 0,-2 1,-3l0 0c0,0 0,0 0,0l0 0c0,-1 0,-2 0,-3 0,0 0,-1 0,-1l0 0c1,-3 1,-6 2,-9l0 0c0,0 0,0 0,-1 0,-1 1,-3 1,-5 0,0 0,0 0,0 0,-1 1,-1 1,-2 0,0 0,0 0,0 0,-1 0,-2 0,-2l0 0 0 0c1,-1 1,-2 1,-3 -2,-1 -3,-3 -4,-5 0,0 17,-81 36,-152 -18,18 -37,33 -50,40 1,0 1,-1 1,-1 -7,5 -15,7 -20,7 -1,0 -2,0 -3,0l14 -70c13,-17 31,-35 47,-49 0,0 0,0 0,0 -6,-6 -13,-4 -19,-15 -5,-8 12,-21 -9,-30 -4,-2 -5,-5 0,-5 0,0 1,0 2,0 10,3 26,10 37,22 0,0 0,0 1,0 0,0 1,-4 2,-8 2,-4 3,-8 4,-8 0,0 1,0 1,1 5,9 1,10 2,22 1,1 1,2 1,3 10,-8 18,-13 22,-15 3,-2 7,-3 10,-3 5,-2 12,-4 18,-5l0 0 10 -4c2,-3 4,-7 5,-12 -2,-1 -4,-2 -6,-3 -2,-1 -3,-2 -4,-3l0 0 0 0c-7,-6 -10,-14 -9,-22l6 -18 83 -9c-3,8 -8,14 -13,19 -1,8 -6,12 -11,13 -2,4 -4,7 -5,11 0,0 -2,-1 -5,-2 0,1 -1,2 -2,3 -1,6 -3,16 -2,22l9 8 0 1c12,1 29,6 39,14 11,3 20,12 16,32 0,5 0,9 -2,15 -2,6 -4,14 -8,21 -5,51 -16,124 -28,180 0,2 0,3 0,4 0,0 -5,2 -12,4l0 0c2,6 3,15 4,25l-60 0 -104 1z"></path>
   <path class="fil19" d="M1164 470l7 -22c-10,0 -13,7 -13,7 0,0 0,-10 3,-20l81 -9c9,8 11,21 6,33 0,1 0,2 -1,2l-83 9z"></path>
   <path class="fil21" d="M1016 775c7,-31 26,-52 32,-58 10,-8 39,-8 51,16 11,24 16,39 13,82 -1,4 -2,10 -3,17l-97 0c1,-25 2,-46 4,-57z"></path>
   <path class="fil22" d="M1112 784c0,-21 -5,-33 -13,-51 -7,-13 -18,-19 -29,-20 -1,-1 -2,-1 -3,-1 0,0 -1,0 -1,0 -2,0 -4,0 -6,1 -2,0 -4,0 -6,1 -1,0 -2,1 -2,1 -1,0 -1,1 -2,1 0,0 -1,1 -2,1 0,1 -1,1 -1,2 0,0 -1,0 -1,0 0,0 0,1 0,1 0,0 -1,0 -1,0 0,0 0,1 0,1 -1,0 -1,0 -1,0 0,1 0,1 0,1 -1,1 -2,1 -3,2 0,1 0,1 0,1 0,0 -1,0 -1,1 0,0 0,0 0,0 -1,1 -1,1 -1,1 0,1 0,1 -1,1 0,1 -1,2 -2,4 0,0 0,0 -1,0 0,0 0,1 0,1 -1,1 -1,1 -1,1 0,1 -1,1 -1,2 0,0 0,0 0,0 -1,2 -2,3 -3,5 0,0 0,0 0,0 -1,1 -1,1 -1,2 -1,0 -1,1 -1,1 0,0 0,1 -1,2 0,0 0,0 0,0 -1,1 -1,2 -1,3l0 0c-1,1 -1,2 -2,3 0,0 0,0 0,0 0,1 -1,2 -1,2 0,1 0,1 0,1 -1,1 -1,2 -1,2 0,1 0,1 0,1 -1,1 -1,2 -2,3l0 0c0,1 0,2 -1,3 0,1 0,1 0,1 0,1 0,2 -1,2 0,1 0,1 0,2 0,0 0,1 -1,2 0,0 0,0 0,1 0,1 0,2 -1,3l0 0 0 0c0,1 0,1 0,2 0,0 0,1 0,1 0,0 0,1 0,1 0,1 0,1 0,1 -1,1 -1,1 -1,2 0,0 0,0 0,1 0,0 0,1 0,1 0,1 0,1 0,1 0,1 0,2 0,2 0,1 0,1 0,1 -1,2 -1,4 -1,7 0,0 0,0 0,0 0,1 0,2 0,3 0,0 0,1 0,1 0,1 0,2 -1,3 0,0 0,0 0,1 0,1 0,2 0,3 0,0 0,0 0,0 0,2 0,3 0,4l0 0c0,4 0,9 -1,13 0,1 0,1 0,1 0,1 0,3 0,4 0,0 0,0 0,0 0,2 0,3 0,4l97 0c1,-6 2,-11 2,-15l0 0c0,-1 0,-2 1,-2 0,-7 0,-13 0,-19 1,-4 1,-8 0,-12z"></path>
   <path class="fil21" d="M1171 776c-12,-32 -35,-53 -42,-59 -12,-9 -40,-8 -48,15 -7,24 -9,39 2,82 1,5 3,11 4,18l95 -1c-3,-24 -7,-44 -11,-55z"></path>
   <path class="fil22" d="M1182 831c-3,-24 -7,-44 -11,-55 -11,-29 -31,-49 -39,-57 -1,-1 -2,-1 -3,-2 -12,-9 -40,-8 -48,15 -7,24 -9,39 2,82 0,2 3,9 5,16 0,0 1,1 1,2l93 -1z"></path>
   <path class="fil23" d="M1116 443c-2,22 24,30 24,30 2,-16 20,-25 26,-44 6,-20 -6,-42 -34,-41 -18,0 -13,34 -16,55z"></path>
   <path class="fil24" d="M1082 558c-12,22 -112,104 -94,95 2,-1 -38,-6 -31,-29 6,-25 72,-91 84,-99 21,-14 55,5 41,33z"></path>
   <path class="fil22" d="M1059 510c-14,7 -68,52 -92,93 0,0 0,0 0,1 2,0 4,1 6,2 10,7 16,21 17,33 1,6 0,11 -1,16 33,-17 99,-98 104,-109 15,-28 -11,-48 -34,-36z"></path>
   <path class="fil25" d="M1194 588c0,52 -5,127 -12,183 0,0 -125,53 -170,-4 0,0 13,-97 27,-171 3,-19 7,-36 10,-50 4,-17 8,-29 12,-33 15,-19 63,-10 78,-8 16,2 43,8 52,23 0,1 1,3 2,7 1,10 2,29 1,53z"></path>
   <path class="fil26" d="M1143 505c0,0 -54,74 -60,80 0,0 2,-64 3,-83l57 3z"></path>
   <path class="fil27" d="M1130 473l0 0 0 0 -30 -4c0,0 0,0 0,0l0 0 0 0c0,-2 1,-3 1,-4l0 0 0 0c0,-1 1,-1 1,-2l0 0 0 0c0,0 1,-1 1,-2l0 0 0 0c0,0 1,0 1,0l0 0 0 0c0,0 0,0 0,0l0 0 0 0c1,-1 2,-2 4,-2l0 0 0 0c0,0 0,0 1,0l0 0 0 0c1,-1 2,-1 4,0l0 0 0 0c1,0 2,0 3,0l0 0 0 0c0,0 1,1 1,1l0 0 0 0c2,0 3,1 4,1l0 0 0 0c7,3 13,8 13,8 0,0 -1,2 -1,5l-3 -1z"></path>
   <path class="fil28" d="M1101 520l-10 -17c0,0 10,-6 9,-23 -4,-41 34,-11 34,-11 0,0 -7,34 5,36l-38 15z"></path>
   <path class="fil29" d="M1101 512c21,3 20,-23 21,-28 1,-5 12,-15 12,-15 0,0 -7,34 5,36l-38 15 -6 -10c2,1 3,2 6,2z"></path>
   <path class="fil22" d="M1194 573l-23 28 0 47c0,0 6,142 -132,139 55,22 143,-16 143,-16 5,-43 12,-150 12,-198z"></path>
   <path class="fil28" d="M1089 411l-10 47c-2,14 13,27 27,29 15,2 29,-8 30,-22l1 -1c0,0 15,1 17,-14 2,-16 -9,-11 -9,-11l1 -7c1,-7 -4,-14 -12,-15l-45 -6z"></path>
   <path class="fil29" d="M1145 439l1 -7c1,-8 -4,-14 -11,-15l-8 -1c0,0 0,0 0,0l-7 54c-1,9 -11,16 -21,14 -2,0 -8,-3 -10,-5 6,5 12,7 17,8 15,2 29,-8 30,-22l1 -1c0,0 15,1 17,-14 2,-16 -9,-11 -9,-11z"></path>
   <path class="fil30" d="M1096 498c-1,11 5,22 5,22 0,0 -7,-3 -13,4 -3,3 -6,3 -6,3 0,0 0,-9 4,-25l10 -4z"></path>
   <path class="fil28" d="M965 657c-25,-23 -85,-124 -104,-131 -18,-8 12,-34 25,-14 13,21 79,70 101,98 32,41 -15,53 -22,47z"></path>
   <path class="fil22" d="M1201 566c-1,7 -3,14 -7,22 -16,40 -55,91 -78,100 -10,4 -25,-7 -31,-15l-46 -77c3,-19 7,-36 10,-50 1,0 1,-1 1,-1l61 79c3,-6 9,-17 11,-23 15,-26 27,-57 30,-61 8,-11 28,-15 41,-5 6,5 11,15 8,31z"></path>
   <path class="fil28" d="M1119 627c-14,-27 -79,-87 -82,-105 -2,-13 1,-14 -4,-22 -4,-7 -4,17 -6,15 -13,-13 -29,-20 -39,-22 -7,-2 -7,2 -2,4 21,9 6,22 11,30 8,11 14,9 21,15 15,14 53,93 69,118 15,22 41,-15 32,-33z"></path>
   <path class="fil25" d="M1095 659c20,-13 23,-28 14,-43 1,-2 10,-18 13,-25 15,-27 27,-58 30,-62 13,-16 56,-17 49,27 -7,40 -58,110 -85,121 -10,4 -25,-7 -31,-15 2,-1 6,-1 10,-3z"></path>
   <path class="fil30" d="M1133 497c-7,10 -32,23 -32,23 0,0 7,-1 15,9 3,4 8,6 8,6 0,0 16,-13 19,-30l-10 -8z"></path>
   <path class="fil23" d="M1129 411c0,0 -12,12 -31,8 -19,-5 -22,5 -22,5 0,0 -5,-36 21,-46 27,-9 40,10 40,10l-8 23z"></path>
   <path class="fil25" d="M943 635c0,0 29,-5 43,-32 0,0 18,19 14,36 -5,18 -24,24 -32,22 -8,-1 -22,-19 -25,-26z"></path>
   <path class="fil28" d="M843 496c1,0 16,3 22,5 5,2 12,4 16,7 0,0 -1,19 -4,25 -9,-3 -42,-14 -43,-14 -11,-2 -12,-6 -9,-9 1,0 -5,-4 -3,-7 0,0 -1,-2 1,-4 1,-2 6,-4 7,-5 3,0 10,2 13,2z"></path>
   <path class="fil28" d="M868 495c2,4 4,8 8,10 -5,-2 -6,1 -12,0 -1,-2 -3,-11 -1,-12 3,-3 4,0 5,2z"></path>
   <path class="fil25" d="M1020 555c0,0 18,-16 30,-20l71 91c0,0 -8,35 -36,36l-65 -107z"></path>
   <path class="fil25" d="M986 603c0,0 -53,-53 -80,-79 0,0 -18,15 -28,26 0,0 58,79 69,92 10,13 34,-12 34,-12l5 -27z"></path>
   <path class="fil22" d="M1104 614c0,0 11,21 13,33 0,0 8,-27 0,-46l-5 14 -15 -20 7 19z"></path>
   <path class="fil31" d="M852 254l0 290c0,7 -6,13 -13,12l-256 1 -58 0 -20 0c-1,0 -2,0 -2,0 -2,-1 -5,-2 -6,-4 -2,-2 -3,-5 -3,-8l0 -251c0,-6 4,-11 10,-12 0,0 0,0 1,0l334 -40c4,0 7,1 9,4 1,0 1,0 1,0 0,0 0,1 0,1 1,0 1,1 1,1 1,1 1,1 1,2 0,1 1,2 1,4z"></path>
   <path class="fil32" d="M842 255l0 289c0,7 -6,12 -13,12l-332 1c-6,-1 -10,-6 -10,-12l0 -250c0,-6 4,-12 10,-12l332 -39c7,-1 13,4 13,11z"></path>
   <path class="fil33" d="M824 556l0 -119 -17 0 0 7c-66,22 -65,-49 -104,-50l0 0 0 0c0,0 -1,0 -1,0 0,0 0,0 0,0l-18 0 0 7c-28,22 -41,90 -71,93 -19,1 -18,-61 -35,-59l0 0 -16 0 8 38 8 0 0 83 246 0z"></path>
   <path class="fil11" d="M711 407l0 1 18 0c-1,-1 -1,-1 -1,-1l-17 0z"></path>
   <path class="fil11" d="M572 445l0 2 17 0c0,0 0,-1 -1,-2l-16 0z"></path>
   <path class="fil34" d="M686 394c-42,-1 -54,97 -90,100 -19,1 -18,-61 -35,-59l0 121 246 0 0 -119c-83,41 -78,-42 -121,-43z"></path>
   <path class="fil11" d="M573 556l0 -109c-1,0 -1,-1 -1,-2l0 111 1 0z"></path>
   <path class="fil11" d="M602 556l0 -63c-1,0 -1,0 -1,0l0 63 1 0z"></path>
   <path class="fil11" d="M630 556l0 -97c0,0 0,1 -1,2l0 95 1 0z"></path>
   <path class="fil11" d="M658 556l0 -146c0,0 -1,1 -1,1l0 145 1 0z"></path>
   <path class="fil11" d="M685 556l0 -162c0,0 0,0 -1,0l0 162 1 0z"></path>
   <path class="fil11" d="M712 556l0 -148c0,-1 -1,-1 -1,-1l0 149 1 0z"></path>
   <path class="fil11" d="M738 556l0 -119c-1,0 -1,0 -1,0l0 119 1 0z"></path>
   <path class="fil11" d="M763 556l0 -108c0,0 0,0 -1,0l0 108 1 0z"></path>
   <path class="fil11" d="M788 556l0 -111c0,0 -1,0 -1,0l0 111 1 0z"></path>
   <path class="fil35" d="M773 556l-1 -93c-60,3 -49,-39 -91,-39l-18 0 0 2c-39,12 -49,76 -82,77 -29,1 -28,-40 -54,-38l-18 0 0 15 18 0 0 76 246 0z"></path>
   <path class="fil11" d="M741 462l0 1 19 0c-1,0 -2,-1 -3,-1l-16 0z"></path>
   <path class="fil11" d="M717 456l0 0 18 0c0,0 -1,0 -1,0l-17 0z"></path>
   <path class="fil11" d="M691 434l0 0 18 0c0,0 0,0 0,0l-18 0z"></path>
   <path class="fil36" d="M665 424l0 0 18 0c-1,0 -1,0 -2,0l-16 0z"></path>
   <path class="fil36" d="M555 502l0 0 18 0c0,0 -1,0 -2,0l-16 0z"></path>
   <path class="fil11" d="M526 471l0 1 18 0c0,-1 0,-1 -1,-1l-17 0z"></path>
   <path class="fil37" d="M651 425c-43,6 -53,77 -87,78 -30,1 -28,-40 -55,-38l0 92 246 -1 0 -93c-65,3 -47,-46 -104,-38z"></path>
   <path class="fil11" d="M527 556l0 -84c-1,-1 -1,-1 -1,-1l0 85 1 0z"></path>
   <path class="fil11" d="M556 556l0 -54c0,0 -1,0 -1,0l0 54 1 0z"></path>
   <path class="fil11" d="M584 556l0 -63c0,0 0,0 0,1l0 62 0 0z"></path>
   <path class="fil11" d="M612 556l0 -102c0,0 0,1 -1,1l0 101 1 0z"></path>
   <path class="fil11" d="M639 556l0 -128c0,1 0,1 0,1l0 127 0 0z"></path>
   <path class="fil11" d="M666 556l0 -132c0,0 -1,0 -1,0l0 132 1 0z"></path>
   <path class="fil11" d="M692 556l0 -122c0,0 -1,0 -1,0l0 122 1 0z"></path>
   <path class="fil11" d="M717 556l0 -100c0,0 0,0 0,0l0 100 0 0z"></path>
   <path class="fil11" d="M742 556l0 -93c0,0 0,0 -1,0l0 93 1 0z"></path>
   <polygon class="fil35" points="755,463 772,463 773,556 755,556 "></polygon>
   <path class="fil38" d="M824 310l0 2 -54 11 15 18 4 4 0 0 -4 3 0 0 -3 -1 -33 31 -5 4c-1,0 -2,0 -4,0 0,0 -1,0 -1,0 -1,0 -2,0 -3,1 0,0 0,0 -1,0l-2 -1 -22 -16c0,-4 -4,-8 -9,-8l-7 0 0 2 -2 0 -25 54 0 1c-2,1 -4,4 -4,7 0,0 0,1 0,1l-8 3 -20 7c-1,0 -2,-1 -3,-2 -1,0 -2,0 -3,0l-9 0 0 6c0,1 0,2 0,3 0,1 0,2 0,3l0 2 -4 0 -1 2 -27 34c0,-1 -1,-1 -2,-1l0 0 0 0c0,0 0,0 0,0 0,0 -1,0 -1,0l-7 0 0 0 0 0 -23 -20c1,-1 1,-2 1,-3 0,-5 -4,-9 -8,-9l0 0 -9 0 0 6c-1,0 -1,1 -1,3 0,1 0,2 1,3l0 1 -2 2 -1 -1 -3 0 0 1 -30 35c0,0 0,0 0,0l0 0 -9 0 0 6c0,1 0,2 0,3 0,0 0,1 0,1l-7 4 -1 0 0 6 6 -3 2 -1 0 2 9 0 0 -1c5,0 8,-4 8,-8 0,-2 0,-4 -1,-5l32 -37 5 0c0,0 0,0 0,0 0,0 0,0 1,0l0 0 0 0c0,0 1,0 2,0 6,5 17,15 21,18 1,1 1,2 1,2l1 -1 1 0 3 3c0,0 0,0 0,0 0,1 0,1 0,2 0,1 0,2 0,3l0 6 9 0 0 0c5,0 9,-4 9,-9 0,-1 -1,-2 -1,-3l31 -38 4 0c4,0 8,-4 8,-8 0,-1 0,-1 0,-2l22 -8 3 -1 2 -1 0 3 8 0c2,0 4,-1 6,-2 2,-2 3,-4 3,-7 0,-2 -1,-4 -3,-6l0 0 20 -41 3 0c3,0 6,-1 7,-3l17 11 6 4c0,1 -1,2 -1,3 0,1 1,2 1,3 0,0 0,1 0,1 1,1 1,2 2,2l-2 3 0 0 8 0c5,0 9,-4 9,-9 0,-1 0,-2 0,-3l6 -5 33 -29 4 -4 14 15 -3 7 9 0 20 -61 -8 0z"></path>
   <path class="fil38" d="M682 422c0,3 -1,5 -3,7 -2,1 -4,2 -6,2l-8 0 0 -3 -2 1 0 -3 8 -10 8 0 0 0c2,2 3,4 3,6z"></path>
   <polygon class="fil38" points="732,382 740,382 740,391 732,391 "></polygon>
   <path class="fil38" d="M749 390c0,5 -4,9 -9,9l-8 0 2 -3c-1,0 -1,-1 -2,-2l8 -7 9 0c0,1 0,2 0,3z"></path>
   <polygon class="fil11" points="791,343 789,345 785,348 784,349 750,379 740,387 740,387 740,387 733,394 733,393 732,393 724,387 701,372 695,368 671,416 671,416 666,424 663,426 658,428 630,438 625,440 621,444 620,445 618,448 618,448 587,486 579,495 578,495 570,487 546,465 544,464 540,460 539,460 537,462 536,464 503,502 497,509 497,509 489,513 487,514 487,508 494,505 495,503 499,499 499,498 532,460 539,452 540,453 548,460 548,460 573,482 574,484 578,487 578,487 583,481 584,480 614,445 621,436 621,436 627,433 633,431 656,423 663,420 666,414 693,360 727,383 733,387 737,383 739,382 745,376 781,345 785,341 788,339 "></polygon>
   <polygon class="fil11" points="803,371 824,310 761,323 "></polygon>
   <path class="fil11" d="M504 507c0,5 -4,9 -9,9 -4,0 -7,-3 -8,-7l0 -4c1,-4 4,-7 8,-7 5,0 9,4 9,9z"></path>
   <path class="fil11" d="M549 457c0,4 -4,8 -9,8 -5,0 -9,-4 -9,-8 0,-5 4,-9 9,-9 5,0 9,4 9,9z"></path>
   <path class="fil11" d="M587 489c0,5 -4,9 -9,9 -4,0 -8,-4 -8,-9 0,-5 4,-9 8,-9 5,0 9,4 9,9z"></path>
   <path class="fil11" d="M630 440c0,4 -4,8 -9,8 -5,0 -9,-4 -9,-8 0,-5 4,-9 9,-9 5,0 9,4 9,9z"></path>
   <path class="fil11" d="M673 422c0,5 -4,9 -8,9 -5,0 -9,-4 -9,-9 0,-5 4,-8 9,-8 4,0 8,3 8,8z"></path>
   <path class="fil11" d="M741 390c0,5 -4,9 -9,9 -5,0 -9,-4 -9,-9 0,-5 4,-8 9,-8 5,0 9,3 9,8z"></path>
   <path class="fil11" d="M704 367c0,4 -4,8 -9,8 -5,0 -9,-4 -9,-8 0,-5 4,-9 9,-9 5,0 9,4 9,9z"></path>
   <path class="fil39" d="M852 254l0 12 -40 5 0 -25 27 -4c7,-1 13,4 13,12z"></path>
   <path class="fil40" d="M842 255l0 12 -355 38 0 -10c0,-6 4,-12 10,-12l332 -39c7,-1 13,4 13,11z"></path>
   <path class="fil11" d="M814 253l9 8c1,1 1,1 0,2 0,0 -1,0 -1,0l-10 -9c0,0 0,-1 0,-1 1,-1 1,-1 2,0z"></path>
   <path class="fil11" d="M821 252c1,-1 1,-1 2,-1 0,1 0,1 0,2l-9 11c0,0 -1,0 -1,0 0,0 0,-1 0,-1l8 -11z"></path>
   <path class="fil11" d="M800 265c-3,1 -5,-1 -5,-4 0,-3 2,-6 4,-6 3,0 5,2 5,4 0,3 -2,6 -4,6zm6 -6c0,-3 -3,-6 -7,-6 -3,1 -6,4 -6,8 1,4 3,6 7,6 3,-1 6,-4 6,-8z"></path>
   <path class="fil11" d="M776 267l11 -1c1,0 1,0 1,1 0,0 0,0 0,1l-12 1c0,0 0,0 0,-1 0,0 0,-1 0,-1z"></path>
   <path class="fil11" d="M504 298l19 -2c0,-1 1,0 1,0 0,1 -1,2 -2,2l-19 2c0,0 -1,0 -1,-1 0,-1 1,-1 2,-1z"></path>
   <path class="fil11" d="M504 291l19 -2c0,0 1,1 1,1 0,1 -1,1 -1,1l-19 3c-1,0 -1,-1 -1,-1 0,-1 0,-1 1,-2z"></path>
   <path class="fil11" d="M504 285l19 -2c1,0 1,0 1,1 0,1 0,1 -1,1l-19 2c-1,0 -1,0 -1,-1 0,0 0,-1 1,-1z"></path>
   <path class="fil34" d="M525 317c-1,0 -3,1 -5,1l3 8c3,-1 6,-1 8,1 3,3 3,8 0,11 -2,2 -4,3 -6,3l0 8c0,0 0,0 0,0 9,0 16,-8 16,-17 0,-9 -7,-15 -16,-15z"></path>
   <path class="fil37" d="M519 329l-7 -4c-1,3 -2,6 -2,9 0,7 4,12 9,14l3 -7c-1,-1 -1,-1 -2,-2 -3,-2 -3,-7 -1,-10z"></path>
   <path class="fil11" d="M512 325l7 4c0,0 0,-1 1,-1 1,-1 2,-2 3,-2l-3 -8c-3,2 -6,4 -8,7z"></path>
   <path class="fil11" d="M519 348c2,1 4,1 6,1l0 -8c-1,0 -2,0 -3,0l-3 7z"></path>
   <path class="fil34" d="M573 314l3 7c1,-1 2,-1 3,-1 4,0 7,2 8,6l7 -3c0,-2 -2,-5 -4,-7 -4,-4 -11,-5 -17,-2z"></path>
   <path class="fil37" d="M579 336c-4,0 -8,-3 -8,-7 0,-3 1,-5 3,-6l-5 -6c-1,0 -1,1 -1,1 -6,6 -6,16 0,22 6,6 16,5 22,-1 1,-2 2,-3 3,-5l-7 -3c-1,3 -4,5 -7,5z"></path>
   <path class="fil11" d="M569 317l5 6c1,-1 1,-2 2,-2l-3 -7c-1,1 -3,2 -4,3z"></path>
   <path class="fil11" d="M587 326c0,0 0,1 0,1 0,2 0,3 -1,4l7 3c2,-3 2,-7 1,-11l-7 3z"></path>
   <path class="fil37" d="M637 329c-3,2 -7,3 -10,1l-4 7c2,1 5,2 8,2 7,0 12,-4 15,-10l-7 -3c-1,1 -1,2 -2,3z"></path>
   <path class="fil34" d="M631 307c-8,0 -15,8 -15,17 0,1 0,3 1,5l7 -3c-1,-3 0,-6 2,-8 3,-4 8,-4 11,-1 2,2 2,4 2,6l8 0c0,0 0,0 0,0 0,-9 -7,-16 -16,-16z"></path>
   <path class="fil11" d="M624 326l-7 3c1,3 3,6 6,8l4 -7c0,0 -1,-1 -1,-1 -1,-1 -2,-2 -2,-3z"></path>
   <path class="fil11" d="M639 326l7 3c1,-2 1,-4 1,-6l-8 0c0,1 0,2 0,3z"></path>
   <path class="fil41" d="M1425 994l-1424 0c0,0 -1,0 -1,-1 0,-1 1,-2 1,-2l1424 0c1,0 2,1 2,2 0,1 -1,1 -2,1z"></path>
   <path class="fil9" d="M686 201c0,11 -10,21 -22,21 -12,0 -21,-10 -21,-21 0,-12 9,-22 21,-22 12,0 22,10 22,22z"></path>
   <path class="fil42" d="M346 482c-8,0 -15,-7 -15,-16 0,-9 7,-16 15,-16 9,0 16,7 16,16 0,9 -7,16 -16,16z"></path>
   <path class="fil9" d="M101 400c0,9 -7,15 -15,15 -8,0 -15,-6 -15,-15 0,-8 7,-15 15,-15 8,0 15,7 15,15z"></path>
   <path class="fil37" d="M308 333c0,-8 -6,-14 -13,-14 -8,0 -14,6 -14,14 0,7 6,13 14,13 7,0 13,-6 13,-13z"></path>
   <path class="fil43" d="M348 333l-107 0c28,-21 44,-39 50,-48l0 -143 7 0 0 143c7,9 23,27 50,48z"></path>
   <path class="fil37" d="M229 275c0,-7 -5,-12 -12,-12 -7,0 -12,5 -12,12 0,6 5,12 12,12 7,0 12,-6 12,-12z"></path>
   <path class="fil43" d="M214 142l0 91c-6,7 -20,24 -44,42l95 0c-25,-18 -39,-35 -45,-42l0 -91 -6 0z"></path>
   <path class="fil37" d="M372 223c0,-6 -5,-12 -11,-12 -7,0 -12,6 -12,12 0,7 5,12 12,12 6,0 11,-5 11,-12z"></path>
   <path class="fil43" d="M358 142l0 39c-6,8 -20,24 -45,42l95 0c-24,-18 -38,-34 -44,-42l0 -39 -6 0z"></path>
   <path class="fil28" d="M405 979c-16,0 -5,-20 -1,-31l-16 -3c-4,10 -1,21 -9,35 -6,10 1,11 1,11l39 0c0,0 0,-12 -14,-12z"></path>
   <path class="fil44" d="M405 979c-4,0 -7,-2 -8,-4 -3,-1 -3,1 -5,3 -6,4 -12,0 -13,2 -6,10 1,11 1,11l39 0c0,0 0,-12 -14,-12z"></path>
   <path class="fil28" d="M484 977c-14,-4 -23,-24 -28,-35l-15 6c3,6 12,14 14,32 1,12 4,11 4,11l44 0c0,0 -6,-9 -19,-14z"></path>
   <path class="fil44" d="M484 977c-4,-1 -8,-4 -11,-7 -1,-1 -2,4 -3,5 -3,3 -13,4 -15,2 0,1 0,2 0,3 1,12 4,11 4,11l44 0c0,0 -6,-9 -19,-14z"></path>
   <path class="fil45" d="M425 860c0,0 31,80 36,89 0,0 -7,8 -17,9 0,0 -51,-84 -56,-93 -5,-9 37,-5 37,-5z"></path>
   <path class="fil46" d="M432 859c0,0 -27,88 -30,99 0,0 -11,0 -18,-6 0,0 11,-83 14,-93 3,-10 34,0 34,0z"></path>
   <path class="fil46" d="M294 817c0,14 -15,49 15,48 30,0 121,0 121,0 0,0 6,-12 -2,-20 -9,-7 -71,-17 -77,-25 -6,-8 -57,-3 -57,-3z"></path>
   <path class="fil45" d="M346 859c-53,0 -38,-41 -38,-43 -8,0 -14,1 -14,1 0,14 -15,49 15,48 21,0 74,0 102,0 -3,-1 -57,-6 -65,-6z"></path>
   <path class="fil23" d="M332 652c-2,3 -1,9 7,13 8,5 9,14 12,8 4,-6 4,-7 2,-13 -1,-6 -18,-14 -21,-8z"></path>
   <path class="fil23" d="M332 652c1,3 -2,8 -11,11 -9,2 -12,10 -14,3 -2,-6 -1,-7 2,-12 3,-6 21,-9 23,-2z"></path>
   <path class="fil28" d="M396 765c-5,-14 -31,-47 -31,-56 0,-6 2,-7 0,-11 -2,-4 -4,8 -4,7 -6,-7 -13,-12 -17,-14 -4,-1 -4,1 -1,2 9,6 1,11 3,15 2,6 5,6 8,9 6,8 19,48 25,61 5,11 20,-4 17,-13z"></path>
   <path class="fil29" d="M348 710c1,0 2,-2 2,-3 2,-2 4,-7 8,-6 1,1 2,2 3,4 0,0 0,0 0,0 2,4 -5,11 -1,14 4,4 11,17 12,19 -5,-9 -10,-16 -13,-18 -1,0 -3,-1 -4,-2 0,0 0,-1 -1,-1 -2,-3 -5,-3 -7,-7 0,0 0,0 1,0z"></path>
   <path class="fil29" d="M330 790c14,-1 36,-7 63,-13 0,0 2,-9 -3,-14 0,0 -54,9 -60,10 -5,1 -15,19 0,17z"></path>
   <path class="fil47" d="M346 701c0,0 -5,2 -6,6 0,4 3,8 3,8 0,0 -11,5 -22,2 0,0 4,-11 2,-22 -2,-12 23,6 23,6z"></path>
   <path class="fil48" d="M335 711c0,-6 3,-10 8,-12 -7,-4 -21,-13 -20,-4 2,11 -2,22 -2,22 5,1 11,1 15,0 0,-2 0,-4 -1,-6z"></path>
   <path class="fil28" d="M345 664c0,0 3,7 5,13 1,6 6,13 2,21 -3,9 -19,5 -24,-2 -6,-7 -5,-14 -2,-19 3,-5 19,-13 19,-13z"></path>
   <path class="fil29" d="M344 692c-1,-3 -4,-25 -4,-25 -5,3 -12,7 -14,10 -3,5 -4,12 2,19 5,7 19,10 23,3 -3,-1 -6,-3 -7,-7z"></path>
   <path class="fil25" d="M359 772c0,1 0,2 -1,3 -6,11 2,39 -8,44 -12,6 -55,9 -58,1 -4,-8 -1,-64 1,-76 1,-11 6,-20 10,-23 4,-2 32,-6 43,-7 4,-1 7,1 9,6 2,3 3,7 4,12 2,14 4,30 0,40z"></path>
   <path class="fil22" d="M297 805c-1,-7 -3,-14 -2,-21 3,-48 14,-55 18,-59 5,-6 12,-4 19,-5 10,-2 13,-6 13,-6 -11,1 -38,5 -42,7 -4,3 -9,12 -10,23 -2,12 -5,68 -1,76 1,4 12,4 26,2 -10,-1 -18,-6 -21,-17z"></path>
   <path class="fil49" d="M346 714c-4,-2 -7,0 -10,-3 -7,-4 -16,-3 -16,-3l-7 11c0,0 22,5 33,-5z"></path>
   <path class="fil23" d="M337 654c21,6 12,27 12,27 0,0 0,-12 -7,-10 -2,0 -4,9 -1,19 3,11 6,23 -2,25 -13,4 -10,53 -27,59 -23,-24 -15,-31 -18,-44 -9,-35 4,-56 9,-64 5,-8 20,-16 34,-12z"></path>
   <path class="fil22" d="M359 772c-3,-5 -5,-10 -8,-16 -6,-15 -8,-26 -3,-31 2,-2 2,-9 7,-5 2,3 3,7 4,12 2,14 4,30 0,40z"></path>
   <path class="fil25" d="M344 717c4,-5 17,0 27,10 10,10 26,40 32,49 5,8 -6,25 -22,12 -15,-12 -22,-24 -29,-39 -6,-15 -13,-26 -8,-32z"></path>
   <path class="fil28" d="M397 761c3,4 5,8 5,12 -1,2 -7,-3 -9,-5 -3,-3 -3,-7 -4,-10 -3,-6 6,-1 8,3z"></path>
   <polygon class="fil13" points="337,866 330,866 349,991 356,991 "></polygon>
   <polygon class="fil50" points="412,867 405,867 425,991 431,991 "></polygon>
   <path class="fil50" d="M342 799l-96 0c-3,0 -5,-2 -5,-4l-7 -27c-1,-4 1,-7 5,-7l96 0c2,0 4,2 5,4l7 27c0,4 -2,7 -5,7z"></path>
   <path class="fil51" d="M339 799l-94 0c-2,0 -4,-2 -4,-4l-6 -25c-1,-3 1,-6 4,-6l94 0c2,0 4,2 5,4l6 25c0,3 -2,6 -5,6z"></path>
   <polygon class="fil13" points="361,871 435,871 435,864 361,864 "></polygon>
   <polygon class="fil50" points="347,867 353,867 331,991 325,991 "></polygon>
   <polygon class="fil50" points="271,867 278,867 256,991 249,991 "></polygon>
   <polygon class="fil51" points="263,871 361,871 361,864 263,864 "></polygon>
   <path class="fil13" d="M351 869c-1,0 -2,-1 -3,-2l-23 -90c0,-1 1,-2 2,-3 2,0 3,1 3,2l23 89c1,2 0,3 -2,4 0,0 0,0 0,0z"></path>
   <path class="fil50" d="M348 869c-1,0 -2,-1 -2,-2l-23 -90c-1,-1 0,-2 2,-3 1,0 2,1 3,2l23 89c0,2 -1,3 -2,4 0,0 -1,0 -1,0z"></path>
   <path class="fil13" d="M276 869c-1,0 -2,-1 -2,-2l-23 -90c-1,-1 0,-2 2,-3 1,0 2,1 3,2l23 89c0,2 -1,3 -2,4 0,0 -1,0 -1,0z"></path>
   <path class="fil50" d="M273 869c-1,0 -2,-1 -2,-2l-23 -90c0,-1 0,-2 2,-3 1,0 3,1 3,2l23 89c0,2 0,3 -2,4 0,0 0,0 -1,0z"></path>
   <path class="fil23" d="M314 644c6,0 12,5 12,11 1,7 -4,12 -10,13 -7,0 -12,-5 -13,-11 -1,-6 4,-12 11,-13z"></path>
   <path class="fil29" d="M514 755c15,-1 39,-8 68,-14 0,0 1,-13 -5,-19 0,0 -57,8 -63,9 -6,2 -16,25 0,24z"></path>
   <path class="fil28" d="M603 977c-19,0 -6,-23 -2,-35l-18 -5c-5,13 -1,25 -11,41 -7,11 1,13 1,13l46 0c0,0 0,-14 -16,-14z"></path>
   <path class="fil52" d="M603 977c-6,0 -9,-2 -10,-5 -3,-1 -3,1 -6,3 -7,5 -14,1 -15,3 -7,11 1,13 1,13l46 0c0,0 0,-14 -16,-14z"></path>
   <path class="fil28" d="M692 975c-15,-5 -26,-28 -31,-41l-18 8c4,6 14,15 16,36 1,14 5,13 5,13l50 0c0,0 -7,-11 -22,-16z"></path>
   <path class="fil52" d="M692 975c-5,-2 -9,-5 -13,-9 -1,-1 -2,4 -3,6 -3,4 -14,5 -17,3 0,1 0,2 0,3 1,14 5,13 5,13l50 0c0,0 -7,-11 -22,-16z"></path>
   <polygon class="fil13" points="540,851 533,851 555,991 561,991 "></polygon>
   <path class="fil53" d="M625 841c0,0 35,91 41,102 0,0 -8,9 -19,9 0,0 -59,-95 -65,-105 -5,-11 43,-6 43,-6z"></path>
   <path class="fil54" d="M633 849c0,0 -31,91 -35,103 0,0 -12,1 -20,-6 0,0 13,-85 16,-97 3,-11 39,0 39,0z"></path>
   <polygon class="fil50" points="616,868 610,868 629,991 635,991 "></polygon>
   <path class="fil54" d="M479 810c0,16 -17,56 17,56 34,-1 138,0 138,0 0,0 7,-14 -2,-23 -10,-9 -68,-22 -75,-31 -8,-9 -78,-2 -78,-2z"></path>
   <path class="fil53" d="M539 859c-61,0 -44,-48 -44,-50 -9,1 -16,1 -16,1 0,16 -17,56 17,56 24,-1 85,-1 117,-1 -4,0 -66,-6 -74,-6z"></path>
   <path class="fil28" d="M585 728c-5,-15 -33,-51 -33,-60 0,-6 2,-7 0,-12 -2,-3 -4,9 -5,8 -5,-8 -13,-13 -18,-15 -3,-1 -3,1 -1,2 10,7 1,12 3,16 3,7 6,6 9,10 7,8 20,51 27,65 5,12 22,-4 18,-14z"></path>
   <path class="fil28" d="M534 659c0,0 -6,2 -6,6 0,5 3,8 3,8 0,0 -12,6 -24,3 0,0 4,-12 2,-24 -2,-12 25,7 25,7z"></path>
   <path class="fil29" d="M522 669c-1,-6 3,-11 9,-12 -8,-5 -24,-14 -22,-5 2,12 -2,24 -2,24 6,2 12,1 16,0 0,-2 0,-5 -1,-7z"></path>
   <path class="fil29" d="M533 670c2,-1 2,-2 3,-3 2,-3 5,-9 8,-7 1,1 2,2 3,4 0,0 0,0 0,0 2,4 -5,12 -1,15 5,4 13,18 13,20 -5,-9 -10,-17 -14,-19 -1,0 -2,-1 -4,-2 0,0 0,-1 -1,-1 -2,-3 -5,-3 -7,-7 0,0 0,0 0,0z"></path>
   <path class="fil28" d="M542 620c0,0 2,8 3,15 0,7 4,15 -1,23 -5,9 -21,3 -26,-5 -4,-9 -3,-16 1,-21 4,-5 23,-12 23,-12z"></path>
   <path class="fil29" d="M536 651c0,-4 0,-28 0,-28 -6,2 -14,6 -17,9 -4,5 -5,12 -1,21 5,8 20,13 25,7 -3,-2 -6,-5 -7,-9z"></path>
   <path class="fil55" d="M536 627c0,0 -2,3 -3,9 0,6 0,9 -3,6 -2,-4 -4,-10 -8,-5 -3,3 -2,7 -1,10 2,2 -1,8 -8,7 -7,-1 -15,-18 -15,-18 0,0 30,-15 38,-9z"></path>
   <path class="fil55" d="M535 603c0,0 9,1 11,9 2,7 0,14 -12,15 -13,2 -12,10 -18,13 -6,3 -13,2 -17,-4 -5,-6 -5,-14 2,-22 7,-8 31,-21 34,-11z"></path>
   <path class="fil37" d="M547 813c-8,4 -30,6 -48,6l0 0c-2,0 -3,0 -5,0 0,0 0,0 -1,0 0,0 -1,0 -1,0 0,0 -1,-1 -1,-1 -1,0 -1,0 -2,0 0,0 -1,0 -1,0l-1 0c0,0 0,0 -1,0 0,0 -1,0 -1,0 -1,0 -1,0 -1,0 -4,-1 -8,-1 -11,-2 0,0 0,0 0,0 0,-1 0,-1 -1,-1 0,0 0,0 0,0 0,0 -1,-1 -1,-1 0,0 0,0 0,0l0 0c0,0 0,0 0,-1l0 0c0,0 0,0 -1,0 -2,-9 8,-100 11,-112 4,-12 10,-21 14,-23 1,-1 1,-1 1,-1 0,0 0,0 1,0 0,0 0,0 1,0 1,-1 3,-1 5,-1 0,0 0,0 0,0 1,0 1,0 1,0 1,-1 1,-1 2,-1 0,0 0,0 1,0 0,0 0,0 0,0 10,-2 22,0 30,0 0,0 5,1 5,1 6,2 10,7 11,19 0,17 2,37 -3,55 -4,14 10,58 -3,63z"></path>
   <path class="fil35" d="M542 751c3,-19 -6,-46 -6,-46l11 -1 6 9c0,12 0,25 -3,37 -4,14 10,58 -3,63 -4,2 -11,3 -20,4 25,-12 12,-48 15,-66z"></path>
   <path class="fil35" d="M545 677c-1,1 -9,-1 -17,2 -8,2 -19,0 -24,4 -5,5 -16,10 -26,61 -1,7 0,46 1,53 1,13 9,20 20,22 -2,0 -3,0 -5,0 0,0 0,0 -1,0 0,0 -1,0 -1,0 0,0 -1,-1 -1,-1 -1,0 -1,0 -2,0 0,0 -1,0 -1,0l-1 0c0,0 0,0 -1,0 0,0 -1,0 -1,0 -1,0 -1,0 -1,0 -4,-1 -8,-1 -11,-2 0,0 0,0 0,0 0,-1 0,-1 -1,-1 0,0 0,0 0,0 0,0 -1,-1 -1,-1 0,0 0,0 0,0l0 0c0,0 0,0 0,-1l0 0c0,0 0,0 -1,0 -2,-9 8,-100 11,-112 4,-12 10,-21 14,-23 1,-1 1,-1 1,-1 0,0 0,0 1,0 0,0 0,0 1,0 1,-1 3,-1 5,-1 0,0 0,0 0,0 1,0 1,0 1,0 1,-1 1,-1 2,-1 0,0 0,0 1,0 0,0 0,0 0,0 10,-2 22,0 30,0 0,0 7,2 8,2z"></path>
   <path class="fil56" d="M534 672c-4,-1 -7,1 -11,-2 -8,-5 -17,-3 -17,-3l-8 11c0,0 24,6 36,-6z"></path>
   <path class="fil35" d="M529 677c5,-5 19,0 29,10 10,11 28,43 34,53 6,9 -6,26 -23,13 -16,-13 -24,-26 -31,-42 -7,-16 -14,-28 -9,-34z"></path>
   <path class="fil13" d="M547 800l-95 0c-2,0 -4,-1 -5,-3l-7 -27c0,-4 2,-7 5,-7l95 0c3,0 4,2 5,4l7 27c1,3 -2,6 -5,6z"></path>
   <path class="fil51" d="M545 800l-93 0c-2,0 -4,-1 -5,-3l-6 -25c-1,-3 2,-6 5,-6l92 0c3,0 4,2 5,4l6 25c1,3 -1,5 -4,5z"></path>
   <polygon class="fil13" points="566,872 639,872 639,865 566,865 "></polygon>
   <polygon class="fil50" points="552,868 558,868 536,991 530,991 "></polygon>
   <polygon class="fil50" points="477,868 484,868 462,991 456,991 "></polygon>
   <polygon class="fil51" points="469,872 566,872 566,865 469,865 "></polygon>
   <path class="fil13" d="M556 870c-1,0 -2,-1 -3,-2l-22 -89c-1,-1 0,-3 2,-3 1,0 2,1 3,2l22 88c1,2 0,3 -1,4 -1,0 -1,0 -1,0z"></path>
   <path class="fil50" d="M553 870c-1,0 -2,-1 -2,-2l-23 -89c0,-1 1,-3 2,-3 1,0 3,1 3,2l23 88c0,2 -1,3 -2,4 0,0 0,0 -1,0z"></path>
   <path class="fil13" d="M482 870c-1,0 -2,-1 -2,-2l-23 -89c0,-1 0,-3 2,-3 1,0 3,1 3,2l23 88c0,2 -1,3 -2,4 0,0 -1,0 -1,0z"></path>
   <path class="fil50" d="M479 870c-1,0 -2,-1 -2,-2l-23 -89c0,-1 1,-3 2,-3 2,0 3,1 3,2l23 88c0,2 0,3 -2,4 0,0 0,0 -1,0z"></path>
   <path class="fil28" d="M586 724c3,5 5,9 5,12 0,3 -7,-2 -9,-4 -3,-4 -3,-8 -5,-11 -3,-6 7,-1 9,3z"></path>
   <path class="fil28" d="M121 954c1,-5 4,-10 8,-16l-11 -7c-3,5 -4,8 -9,14 -4,4 -1,16 8,18 1,0 3,-2 4,-9z"></path>
   <path class="fil52" d="M117 950c3,2 8,-4 9,0 -5,4 -7,10 -7,21 1,9 -10,18 -10,18l-4 -51c0,0 2,-6 13,-5 0,5 -6,15 -1,17z"></path>
   <path class="fil28" d="M117 978c16,-7 11,-22 13,-32l12 5c0,0 0,18 1,29 0,11 -3,10 -3,10l-39 1c0,0 5,-8 16,-13z"></path>
   <path class="fil52" d="M116 978c4,-1 7,-3 9,-7 2,-2 9,1 11,5 0,0 3,2 7,2 0,1 0,1 0,2 0,11 -3,10 -3,10l-39 1c0,0 4,-9 15,-13z"></path>
   <path class="fil37" d="M159 696c11,35 32,133 31,137 -1,6 -27,23 -32,1 -7,-34 -71,-127 -29,-154 15,-10 27,6 30,16z"></path>
   <path class="fil35" d="M118 694c2,-6 6,-10 11,-14 0,0 1,0 1,-1 0,0 0,0 0,0 3,-1 5,-2 7,-2 -4,27 -2,53 2,76l7 -37c0,0 6,29 2,61 0,6 1,12 3,18 9,25 18,41 20,43 -2,-1 -6,1 -10,2 -1,-1 -2,-3 -3,-6 -6,-30 -55,-104 -40,-140z"></path>
   <path class="fil37" d="M101 734c1,-19 9,-34 12,-39 5,-7 19,-12 27,-1 7,11 7,17 8,42 1,25 -6,91 -4,109 2,18 -23,29 -24,2 -2,-27 -21,-91 -19,-113z"></path>
   <path class="fil37" d="M119 852c0,-5 0,-9 0,-14 -2,-22 24,-9 25,-4 0,8 -1,12 3,37 3,25 1,39 -2,52 -2,13 -1,30 -1,30 -11,5 -16,2 -16,2 0,0 -3,-27 -7,-48 -3,-21 -2,-43 -2,-55z"></path>
   <path class="fil37" d="M114 933c0,0 1,2 4,4 0,1 1,1 1,1l0 0c2,1 6,3 11,4 0,0 62,-102 60,-110 -1,-4 -13,-21 -27,-8 -8,7 -17,23 -26,55 0,1 0,1 0,2 -6,21 -23,52 -23,52z"></path>
   <path class="fil55" d="M120 544c7,0 12,6 11,13 0,7 -6,13 -13,12 -7,0 -12,-6 -12,-13 1,-7 7,-13 14,-12z"></path>
   <path class="fil55" d="M102 609c2,-13 -5,-22 2,-36 8,-15 16,-16 23,-18 19,-4 37,20 29,36 -7,14 -1,26 5,39 5,13 6,52 -29,54 -34,2 -41,-13 -43,-34 -3,-25 10,-28 13,-41z"></path>
   <path class="fil29" d="M160 685c0,0 1,1 2,1 6,4 14,0 13,-8 -1,-8 -11,-42 -13,-52 -2,-11 -21,-13 -21,0 -1,2 3,15 7,29 5,15 9,27 12,30z"></path>
   <path class="fil29" d="M162 626c2,10 12,43 13,51 1,3 0,5 -1,7 0,-1 -5,-24 -6,-29 -3,-12 -8,-27 -19,-32 -3,-2 -6,-2 -9,-2 6,-4 21,0 22,5z"></path>
   <path class="fil53" d="M148 617c-4,1 -7,3 -8,8 0,1 0,3 1,5 1,8 4,20 8,32 3,1 11,1 22,-3 -3,-13 -8,-27 -9,-33 -1,-7 -8,-10 -14,-9z"></path>
   <path class="fil53" d="M157 624c-3,-5 -8,-4 -13,-4 5,-7 17,-3 19,6 0,6 5,20 8,33 0,0 0,0 0,0 -6,-8 -8,-27 -14,-35z"></path>
   <path class="fil28" d="M116 670c-1,-5 -3,-10 -9,-28 -2,-7 -5,-13 -3,-16 2,-4 9,-5 14,-6 9,0 4,-22 4,-22 1,-5 16,-5 16,10 0,15 15,7 18,10 5,3 5,12 6,16 2,4 8,9 8,17 -1,8 -8,8 -8,8 -3,4 -5,9 -5,13 -2,10 1,20 1,20 -26,13 -46,3 -46,3 0,0 7,-9 4,-25z"></path>
   <path class="fil29" d="M118 620c9,0 4,-22 4,-22 0,-3 5,-4 10,-2 -3,1 -9,14 -4,32 1,5 7,8 12,9 0,0 -32,7 -33,5 -2,-7 6,-21 11,-22z"></path>
   <path class="fil29" d="M139 628c1,-7 0,-9 0,-9 -2,-5 -1,-5 -1,-9l0 0c1,11 12,7 16,7 -1,3 -3,4 -4,7 0,0 0,0 0,1 -2,9 1,47 -1,59 -1,13 -18,13 -18,4 -1,-11 7,-48 8,-60l0 0z"></path>
   <path class="fil54" d="M105 705c0,0 0,0 0,0 0,0 30,11 57,-2 0,0 -7,-15 -5,-31 0,-4 2,-9 5,-13 0,0 7,0 8,-8 0,-8 -6,-13 -8,-17 -1,-4 -1,-13 -6,-16 -1,-1 -3,-1 -5,-1 0,8 -2,14 -8,17 -8,5 -20,-1 -27,-14 -2,1 -4,1 -7,2 -2,1 -4,2 -5,4 0,0 0,0 0,0 -2,4 1,9 3,16 6,18 9,22 9,28 0,1 0,3 0,4 0,6 -1,10 -2,14 0,1 0,1 0,1 -3,9 -8,15 -9,16z"></path>
   <path class="fil53" d="M105 705c0,0 0,0 0,0 0,0 9,-3 16,-3 10,-1 19,-12 16,-22l-3 -12c-5,-1 -8,-4 -10,-8 -1,-6 2,-13 8,-15 0,0 -27,-21 -28,-19 0,0 0,0 0,0 -2,4 0,9 3,16 5,18 8,23 9,28 0,2 0,3 0,4 0,6 -1,10 -2,14 0,1 0,1 0,1 -3,9 -8,15 -9,16z"></path>
   <path class="fil28" d="M170 670c-13,-2 -29,5 -37,3 -8,-2 -17,-4 -21,1 -2,5 -3,8 3,11 3,1 5,2 14,0 9,-1 24,4 37,3 13,-1 12,-18 4,-18z"></path>
   <path class="fil28" d="M120 583c0,0 8,-19 14,-19 6,0 11,0 14,7 0,0 3,6 2,14 0,0 7,7 -2,18 -9,10 -23,2 -28,-8 0,0 -8,3 -9,-5 -1,-8 4,-8 9,-7z"></path>
   <path class="fil29" d="M120 583c0,0 8,-19 14,-19 5,0 9,0 12,4 -4,-1 -19,15 -20,25 0,10 10,16 19,12 1,-1 2,-1 3,-2 -9,10 -23,2 -28,-8 0,0 -8,3 -9,-5 -1,-8 4,-8 9,-7z"></path>
   <path class="fil55" d="M152 574c0,0 -9,-2 -15,-7 -5,-6 -8,-5 -8,-5 17,-7 23,12 23,12z"></path>
   <path class="fil29" d="M112 674c3,-5 9,-3 17,-2 1,0 3,1 4,1 0,0 0,0 0,0l0 0 0 0c0,0 1,0 1,0 0,0 0,0 0,0 1,1 1,1 1,1 0,0 0,0 0,0 1,0 1,0 1,0 0,0 1,0 1,0 0,0 0,0 1,0 0,0 0,0 0,0 0,0 1,0 1,0l0 0c1,-1 1,-1 1,-1 0,0 1,0 1,0 0,0 0,0 1,0 0,0 0,0 0,0 1,0 1,0 2,0l0 0c1,4 3,7 3,8 1,2 1,4 1,5l0 0c-7,-1 -14,-2 -19,-1 -9,2 -11,2 -15,0 -4,-3 -5,-7 -2,-11z"></path>
   <path class="fil55" d="M134 563c3,2 3,9 -4,16 -7,7 -5,16 -10,11 -5,-5 -5,-6 -6,-12 0,-7 15,-20 20,-15z"></path>
   <path class="fil28" d="M101 633c0,3 10,19 19,34 7,11 14,22 17,24 7,5 16,-1 13,-11 -1,-3 -6,-11 -11,-20 -5,-9 -11,-19 -14,-26 -1,-1 -2,-2 -2,-3 -3,-7 -15,-10 -20,-6 -2,2 -3,4 -2,8z"></path>
   <path class="fil29" d="M133 662c0,0 -4,14 2,26 5,11 5,-25 5,-25l-3 -4 -4 3z"></path>
   <path class="fil54" d="M101 633c0,3 9,19 18,34 0,0 0,0 1,0 3,0 10,-2 19,-7 0,-1 1,-1 1,-1 -5,-10 -12,-19 -15,-25 -1,-1 -2,-2 -2,-3 -3,-7 -15,-10 -20,-6 -2,2 -3,4 -2,8z"></path>
   <path class="fil53" d="M118 629c-5,-5 -12,-4 -17,-2 4,-8 18,-4 21,3 3,5 12,17 18,29 0,0 0,0 0,0 -8,-6 -15,-24 -22,-30z"></path>
   <path class="fil28" d="M141 626c1,-7 0,-9 0,-9 -1,-5 -3,-5 -2,-10 0,-3 4,7 5,5 3,-7 8,-12 12,-15 2,-2 3,0 1,2 -7,7 2,9 1,13 -1,6 -4,6 -6,10 0,0 0,1 0,1 -2,10 1,47 0,60 -2,13 -19,12 -19,3 0,-11 8,-48 8,-60l0 0z"></path>
   <path class="fil35" d="M114 933c0,0 1,2 4,4 0,1 1,1 1,1l0 0c11,-18 26,-50 30,-67 2,-10 5,-22 9,-31 2,-7 4,-13 5,-16 -8,7 -17,23 -26,55 0,1 0,1 0,2 -6,21 -23,52 -23,52z"></path>
  </g>
 </g>
</svg>