<svg width="53" height="29" viewBox="0 0 53 29" fill="none" xmlns="http://www.w3.org/2000/svg">
<path d="M9.23145 1.08179C8.77293 0.573134 8.16649 0.22102 7.49739 0.075134C6.82829 -0.0707517 6.13042 -0.00309091 5.50177 0.268521C4.87312 0.540132 4.3453 1.00208 3.99294 1.58929C3.64058 2.1765 3.48126 2.85942 3.53738 3.54193V6.89489H10.0847V3.54193C10.1195 3.09522 10.0617 2.64607 9.91491 2.22273C9.76811 1.7994 9.53538 1.41102 9.23145 1.08179ZM16.8502 23.3819C16.7166 23.247 16.5548 23.1433 16.3765 23.0781C16.1981 23.0129 16.0076 22.988 15.8185 23.005C15.4909 23.0216 15.1655 23.0681 14.8463 23.1439C14.4435 23.2401 14.0304 23.2867 13.6163 23.2826C13.1291 23.3301 12.6372 23.2752 12.1726 23.1215C11.7079 22.9677 11.2808 22.7186 10.918 22.3899C10.3141 21.6179 10.0172 20.6497 10.0847 19.6719V11.7359H3.53738V19.8901C3.47843 21.5491 3.80435 23.1992 4.48966 24.7112C5.12507 25.9858 6.1743 27.0071 7.46567 27.6079C9.04395 28.3068 10.7601 28.6392 12.4852 28.58C13.0377 28.5746 13.5888 28.5214 14.1321 28.4213C14.6614 28.3527 15.185 28.2467 15.6993 28.1039C15.9748 28.0295 16.2292 27.8921 16.4426 27.7028C16.656 27.5135 16.8227 27.2772 16.9294 27.0126C17.1641 26.4194 17.2788 25.7854 17.2668 25.1476C17.3375 24.5285 17.1903 23.9041 16.8502 23.3819Z" fill="white"/>
<path d="M23.4968 1.08182C23.1615 0.788141 22.7716 0.563382 22.3495 0.420405C21.9274 0.277427 21.4813 0.218946 21.0366 0.248451C20.5941 0.200432 20.1465 0.252985 19.7271 0.402119C19.3078 0.551254 18.9276 0.793168 18.6147 1.10979C18.3019 1.42641 18.0647 1.80962 17.9206 2.23076C17.7766 2.65189 17.7295 3.10009 17.7828 3.54196V6.89493H24.3497V3.54196C24.3799 3.09563 24.32 2.64773 24.1734 2.22507C24.0269 1.8024 23.7968 1.41365 23.4968 1.08182ZM31.0954 23.382C30.9648 23.2486 30.8065 23.1457 30.6316 23.0806C30.4567 23.0154 30.2695 22.9896 30.0835 23.005C29.7494 23.0214 29.4174 23.0679 29.0915 23.1439C28.6889 23.2412 28.2757 23.2877 27.8615 23.2827C27.3744 23.3289 26.883 23.2735 26.4185 23.1198C25.954 22.9661 25.5266 22.7176 25.1633 22.39C24.5664 21.6152 24.2766 20.6472 24.3497 19.6719V11.7359H17.7431V19.8901C17.6842 21.5491 18.0101 23.1992 18.6954 24.7112C19.3308 25.9859 20.38 27.0072 21.6714 27.6079C23.2497 28.3069 24.9659 28.6392 26.691 28.58C27.2435 28.5763 27.7945 28.5232 28.3376 28.4213C28.8673 28.3548 29.3913 28.2488 29.905 28.1039C30.1818 28.0324 30.4376 27.8962 30.6515 27.7065C30.8653 27.5168 31.0311 27.2789 31.1351 27.0126C31.3698 26.4194 31.4846 25.7855 31.4725 25.1476C31.555 24.5332 31.4216 23.9092 31.0954 23.382Z" fill="white"/>
<path d="M51.2139 10.4461C50.6686 9.39104 49.8474 8.50349 48.8377 7.87811C47.8281 7.25273 46.6676 6.91297 45.4801 6.89483C42.6033 6.89483 39.7066 6.89483 36.8298 6.89483H16.7915C16.5081 6.8622 16.2217 6.8622 15.9383 6.89483C15.6416 6.86223 15.3423 6.86223 15.0456 6.89483H2.5264C1.85522 6.8554 1.19471 7.07561 0.681419 7.50987C0.444513 7.73952 0.261092 8.01859 0.144489 8.32725C0.0278852 8.63591 -0.0189583 8.96647 0.0069262 9.2954C-0.0139437 9.62685 0.0352751 9.95897 0.151512 10.2701C0.267749 10.5812 0.448321 10.8643 0.681419 11.1009C1.19386 11.5561 1.8612 11.7975 2.54626 11.7754H10.9981H14.9661C15.2628 11.808 15.5624 11.808 15.8591 11.7754C16.1425 11.808 16.4286 11.808 16.7121 11.7754H18.6961H40.6789H43.3771C43.7342 11.7296 44.0968 11.7628 44.4396 11.8725C44.7824 11.9822 45.097 12.1658 45.3611 12.4103C45.8129 13.1318 46.0084 13.9845 45.9165 14.8308V15.5649H44.3493C41.9279 15.5135 39.5077 15.7129 37.1275 16.1601C35.6327 16.3988 34.2474 17.0915 33.1595 18.1441C32.2946 19.1727 31.8546 20.4925 31.9294 21.8343C31.9118 23.0973 32.2786 24.3359 32.981 25.3857C33.7067 26.4272 34.6913 27.2614 35.8378 27.8062C37.1729 28.4254 38.6321 28.7308 40.1035 28.699C41.1271 28.7211 42.1431 28.518 43.0795 28.1038C43.9124 27.7482 44.6424 27.1887 45.2023 26.4769C45.5593 26.0625 45.8353 25.5846 46.0158 25.0682V25.3063C45.9814 25.7498 46.0355 26.1957 46.1751 26.6181C46.3148 27.0405 46.5373 27.4308 46.8293 27.7664C47.1263 28.0579 47.4808 28.2844 47.8702 28.4312C48.2596 28.5781 48.6755 28.6422 49.0911 28.6195C49.5036 28.6419 49.9161 28.5776 50.3023 28.4306C50.6884 28.2837 51.0397 28.0574 51.333 27.7664C51.9152 27.0842 52.207 26.2011 52.1463 25.3063V15.6641C52.2658 13.8747 51.9457 12.0833 51.2139 10.4461ZM46.0158 19.7313C46.0417 20.5661 45.8502 21.3934 45.4602 22.1319C45.0857 22.784 44.545 23.3248 43.893 23.6993C43.1973 24.0704 42.4197 24.2614 41.6312 24.2548C40.7618 24.3109 39.9034 24.0343 39.2304 23.481C38.9533 23.2317 38.7335 22.9252 38.5862 22.5827C38.4389 22.2401 38.3678 21.8698 38.3774 21.497C38.3666 21.2122 38.4136 20.9281 38.516 20.6621C38.6183 20.3961 38.7736 20.1536 38.9725 19.9495C39.5444 19.4943 40.231 19.2059 40.9565 19.1162C42.1464 18.9543 43.3469 18.8814 44.5476 18.898H46.0555L46.0158 19.7313Z" fill="white"/>
<path d="M16.7928 6.89483C16.5094 6.8622 16.223 6.8622 15.9396 6.89483C15.6429 6.86223 15.3436 6.86223 15.0469 6.89483H16.7928Z" fill="white"/>
<path d="M18.695 11.7161H10.9971H14.9651C15.2618 11.7487 15.5613 11.7487 15.858 11.7161C16.1415 11.7487 16.4276 11.7487 16.711 11.7161H18.695Z" fill="white"/>
</svg>
